<svg width="69" height="26" viewBox="0 0 69 26" fill="none" xmlns="http://www.w3.org/2000/svg">
<path d="M68.6469 18.9766H65.97L60.5066 14.5821L58.3322 16.3545V18.9766H56.4593V4.94356H58.3322V14.372L65.1477 8.68935H67.6876L61.8679 13.4584L68.6469 18.9766Z" fill="#46240A"/>
<path d="M13.942 18.9767H4.58668C4.12988 18.9767 3.70353 18.8914 3.30764 18.7209C2.91174 18.5503 2.56457 18.3189 2.26612 18.0265C1.96768 17.7281 1.73319 17.3809 1.56265 16.985C1.39211 16.583 1.30684 16.1567 1.30684 15.706C1.30684 15.2492 1.39211 14.8228 1.56265 14.4269C1.73319 14.031 1.96768 13.6839 2.26612 13.3854C2.56457 13.087 2.91174 12.8525 3.30764 12.6819C3.70353 12.5114 4.12988 12.4261 4.58668 12.4261H11.1281V14.299H4.58668C4.39178 14.299 4.20906 14.3386 4.03852 14.4178C3.86798 14.4909 3.71876 14.5914 3.59085 14.7193C3.46295 14.8472 3.36245 14.9964 3.28936 15.1669C3.21627 15.3375 3.17973 15.5172 3.17973 15.706C3.17973 15.9009 3.21627 16.0836 3.28936 16.2541C3.36245 16.4186 3.46295 16.5648 3.59085 16.6927C3.71876 16.8206 3.86798 16.9211 4.03852 16.9942C4.20906 17.0672 4.39178 17.1038 4.58668 17.1038H12.0691V11.9602C12.0691 11.7714 12.0295 11.5917 11.9504 11.4212C11.8773 11.2506 11.7768 11.1014 11.6489 10.9735C11.521 10.8456 11.3717 10.7451 11.2012 10.672C11.0307 10.5928 10.851 10.5532 10.6622 10.5532H3.17973V8.68947H10.6622C11.119 8.68947 11.5453 8.77474 11.9412 8.94528C12.3371 9.11582 12.6843 9.35032 12.9827 9.64876C13.2812 9.94111 13.5157 10.2852 13.6862 10.6811C13.8567 11.077 13.942 11.5034 13.942 11.9602V18.9767Z" fill="#46240A"/>
<path d="M18.231 13.1172H22.5356" stroke="#46240A" stroke-width="1.43915" stroke-linecap="round"/>
<circle cx="38.7612" cy="13.1174" r="11.6441" stroke="#46240A" stroke-width="1.24738"/>
<path fill-rule="evenodd" clip-rule="evenodd" d="M47.559 13.1166C47.559 8.25785 43.6203 4.31909 38.7616 4.31909C33.9029 4.31909 29.9641 8.25785 29.9641 13.1166C29.9641 17.9753 33.9029 21.914 38.7616 21.914C39.7021 21.914 40.6081 21.7664 41.4578 21.4932C40.7334 21.6974 39.9692 21.8066 39.1795 21.8066C34.5515 21.8066 30.7997 18.0549 30.7997 13.4269C30.7997 8.79887 34.5515 5.04714 39.1795 5.04714C43.7547 5.04714 47.4735 8.71381 47.5577 13.2689C47.5586 13.2182 47.559 13.1674 47.559 13.1166Z" fill="#46240A"/>
<path fill-rule="evenodd" clip-rule="evenodd" d="M43.9517 9.05774C44.8272 10.1762 45.3491 11.5847 45.3491 13.1152C45.3491 16.7536 42.3996 19.7031 38.7612 19.7031C37.5765 19.7031 36.4648 19.3903 35.5042 18.8429C36.288 19.1559 37.1432 19.3281 38.0386 19.3281C41.8144 19.3281 44.8752 16.2672 44.8752 12.4914C44.8752 11.2398 44.5389 10.0668 43.9517 9.05774Z" fill="#46240A"/>
</svg>
